<svg width="52" height="51" viewBox="0 0 52 51" fill="none" xmlns="http://www.w3.org/2000/svg">
<path d="M44.0928 5.50684H7.90639C7.03615 5.50684 6.33307 6.20991 6.33307 7.08016V43.2665C6.33307 44.1368 7.03615 44.8399 7.90639 44.8399H44.0928C44.963 44.8399 45.6661 44.1368 45.6661 43.2665V7.08016C45.6661 6.20991 44.963 5.50684 44.0928 5.50684ZM39.5498 16.9872H36.4081C33.9448 16.9872 33.4679 18.1573 33.4679 19.8781V23.6689H39.3482L38.5812 29.6032H33.4679V44.8399H27.3369V29.6081H22.2089V23.6689H27.3369V19.2931C27.3369 14.2142 30.4393 11.4461 34.9724 11.4461C37.1456 11.4461 39.009 11.6084 39.5547 11.6821V16.9872H39.5498Z" fill="#112D57"/>
</svg>
