<svg width="51" height="51" viewBox="0 0 51 51" fill="none" xmlns="http://www.w3.org/2000/svg">
<path d="M45.6279 12.5032C44.1234 13.1522 42.4861 13.6193 40.7997 13.8012C42.5506 12.7611 43.8618 11.1177 44.4872 9.17961C42.8442 10.157 41.0444 10.8423 39.1674 11.2053C38.3829 10.3666 37.4342 9.69851 36.3802 9.24258C35.3262 8.78665 34.1897 8.55266 33.0413 8.5552C28.3951 8.5552 24.6585 12.3213 24.6585 16.943C24.6585 17.592 24.7371 18.241 24.865 18.8654C17.9079 18.5015 11.7031 15.1779 7.57809 10.0892C6.82646 11.373 6.43258 12.8348 6.43743 14.3224C6.43743 17.233 7.91734 19.7995 10.1741 21.3089C8.84414 21.2566 7.54536 20.891 6.38335 20.242V20.3453C6.38335 24.4212 9.26449 27.7989 13.1044 28.5757C12.3834 28.763 11.6417 28.8588 10.8968 28.8609C10.3511 28.8609 9.83482 28.8068 9.31366 28.733C10.3757 32.0567 13.4682 34.4707 17.1508 34.5494C14.2696 36.8061 10.6608 38.1336 6.74226 38.1336C6.03919 38.1336 5.39019 38.109 4.71661 38.0304C8.43358 40.4149 12.8438 41.7916 17.5933 41.7916C33.0118 41.7916 41.4487 29.0182 41.4487 17.9312C41.4487 17.5674 41.4487 17.2035 41.4241 16.8397C43.0565 15.645 44.4872 14.1651 45.6279 12.5032Z" fill="#112D57"/>
</svg>
